<svg xmlns="http://www.w3.org/2000/svg" width="400" height="400"><g fill-rule="evenodd"><path d="M134.3 113.157a237.2 237.2 0 00-6 3.223l-3 1.679 1.337 8.02c.736 4.412 1.343 8.126 1.35 8.254.007.128-.459.523-1.037.877-4.908 3.013-13.943 10.775-24.231 20.817l-4.18 4.08 2.08.765c2.785 1.023 5.774 2.325 8.66 3.769l2.378 1.191 1.222-1.177c8.247-7.943 17.02-15.534 21.358-18.48l1.189-.808 3.737 1.449c30.162 11.697 59.401 25.672 73.572 35.166l2.565 1.718-.051 2.3c-.091 4.107-.48 27.432-.633 38-.083 5.665-.166 18.753-.185 29.085-.019 10.332-.061 18.811-.092 18.843-.25.25-5.655-1.908-7.801-3.115-3.782-2.126-7.608-5.438-10.181-8.813-5.401-7.084-7.377-9.382-11.785-13.705-4.173-4.093-12.569-10.891-17.609-14.258-1.986-1.327-5.963-3.584-5.963-3.384 0 .048.625 1.753 1.388 3.788 1.668 4.444 3.87 10.903 4.919 14.429l.765 2.571 2.314 1.907c4.791 3.948 9.683 9.216 14.727 15.859 14.808 19.504 36.21 24.068 77.787 16.59 24.556-4.417 33.539-6.633 48.9-12.062 26.656-9.422 46.854-22.2 59.141-37.416 1.501-1.859 1.528-1.118-.251-7.019-1.645-5.46-3.334-10.358-3.601-10.441-.116-.037-.427.318-.69.787-2.948 5.258-8.853 12.362-14.368 17.285-2.223 1.985-2.072 1.954-2.507.519-5.342-17.615-16.712-40.492-28.425-57.188l-1.148-1.638 2.006-3.962c3.331-6.578 6.131-13.149 7.936-18.618l.744-2.257-1.368-1.538c-.753-.846-2.764-3.01-4.469-4.81-1.705-1.799-3.491-3.714-3.968-4.255-1.066-1.209-1.152-1.213-1.324-.071-.931 6.212-8.201 24.958-11.141 28.729-.25.321-.54.324-4.467.057-22.205-1.51-52.488-.327-76.641 2.993l-3.508.482-2.955-1.976c-15.498-10.366-45.865-24.988-75.796-36.499-1.925-.74-3.567-1.407-3.649-1.482-.132-.12-3.551-20.867-3.551-21.548 0-.456-.399-.309-3.5 1.288m161.2 69.641c5.515.213 11.455.552 12.425.709 1.766.287 11.583 16.253 18.072 29.393 5.032 10.188 11.363 26.317 12.308 31.357l.131.699-3.168 1.798c-14.224 8.069-34.24 15.594-52.05 19.568-19.897 4.439-38.256 7.148-50.268 7.418l-5.35.12.005-14.38c.002-7.909.088-20.545.191-28.08.382-28.109.641-42.935.771-44.098l.133-1.197 1.962-.244c21.599-2.689 45.401-3.813 64.838-3.063M35.6 197.913c-12.676 3.308-16.197 22.107-5.483 29.273 9.426 6.304 21.889-2.142 21.882-14.828-.006-9.694-7.914-16.659-16.399-14.445m58.272.654c-13.107 3.346-14.252 23.952-1.672 30.096 12.126 5.922 23.556-7.415 17.894-20.879-2.847-6.769-9.966-10.814-16.222-9.217M90.2 240.822c-2.586.357-7.185 2.366-14.6 6.378-3.95 2.137-5.567 2.918-6.786 3.279-4 1.183-9.468-1.089-18.403-7.645-3.71-2.722-7.21-1.941-7.211 1.608-.002 6.819 17.573 19.603 26.268 19.107 2.647-.151 6.128-2 11.732-6.232l5.7-4.301c6.335-4.778 8.064-6.83 7.858-9.32-.188-2.27-1.76-3.261-4.558-2.874" fill="#2c2c2c"/><path d="M191.9 98.319c-.44.04-2.195.169-3.9.287-16.65 1.152-32.699 5.07-47.267 11.541-2.841 1.262-2.963 1.34-2.867 1.835.055.285.85 5.209 1.767 10.942l1.667 10.424 5.5 2.155c30.57 11.981 58.788 25.615 73.8 35.66 3.016 2.018 3.124 2.071 4 1.964.495-.061 3.015-.381 5.6-.711 21.806-2.79 52.012-3.996 70.6-2.817 1.925.122 4.398.239 5.495.261l1.996.04 1.248-2.4c4.809-9.25 9.043-20.683 9.939-26.835l.122-.835-1.95-1.8c-21.198-19.569-63.795-35.929-102.45-39.348-3.435-.303-20.962-.577-23.3-.363m-68.31 20.75c-16.734 10.618-29.027 21.253-41.263 35.696-.865 1.021-1.54 1.88-1.5 1.91.04.029 1.198.162 2.573.293 4.528.435 11.152 1.77 14.256 2.873l.756.269 4.544-4.418c10.488-10.196 17.653-16.379 23.394-20.189.897-.594 1.45-1.098 1.45-1.318 0-.366-2.313-14.728-2.502-15.535-.135-.574-.149-.571-1.708.419m9.254 28.221c-4.977 3.716-16.568 13.915-20.399 17.95l-.656.69 2.756 1.647c15.77 9.423 28.935 24.084 38.363 42.723 2.526 4.992 8.086 17.865 7.933 18.365-.028.091.043.107.158.036.864-.534 10.407 6.089 18.701 12.98 5.296 4.399 10.471 9.975 15.697 16.91 5.093 6.759 11.635 11.459 18.253 13.115l.55.137.002-10.171c.004-15.161.497-54.434.912-72.572l.123-5.4-3.269-2.124c-14.864-9.657-40.928-22.116-71.057-33.964-6.124-2.408-5.317-2.376-8.067-.322m197.593 5.429c-.99 3.704-4.594 12.347-7.949 19.065l-2.439 4.883.939 1.317c10.961 15.365 20.885 34.844 27.419 53.816.852 2.475 1.642 4.5 1.755 4.5 1.389 0 10.832-10.436 14.378-15.89.826-1.27 1.752-2.68 2.057-3.131l.554-.822-.875-2.367c-.482-1.302-.876-2.467-.876-2.589 0-.651-4.284-10.76-6.949-16.396A200.141 200.141 0 00351.639 182c-5.301-9.379-11.177-18.035-18.295-26.95-3.032-3.798-2.606-3.456-2.907-2.331m-56.037 30c-11.759.331-21.952.957-32.59 2-4.739.465-13.036 1.436-13.129 1.537-.064.069-.464 22.419-.673 37.544-.188 13.704-.311 36.569-.244 45.379l.036 4.68 4.55-.14c11.888-.365 19.675-1.398 40.15-5.323 17.267-3.311 28.194-6.441 42.89-12.289 9.952-3.959 23.009-10.598 22.849-11.617-.46-2.942-5.19-15.941-8.693-23.89-5.307-12.045-16.225-31.233-20.682-36.347l-.564-.647-3-.202c-8.171-.549-23.598-.891-30.9-.685m96.3 52.04c-11.344 14.087-30.745 26.618-55.496 35.846-14.95 5.573-24.232 8.025-45.804 12.096-48.58 9.17-68.566 5.238-85.411-16.801-2.716-3.555-2.782-3.634-5.754-6.954-2.582-2.882-9.691-9.357-9.97-9.078-.027.028.175.856.45 1.841 2.31 8.275 4.676 19.383 5.473 25.691 1.341 10.618 2.412 24.838 2.412 32.046 0 4.134-.404 3.636 3.2 3.941 5.376.454 35.306.842 46.9.607 27.978-.565 45.04-3.285 72.276-11.519 23.237-7.026 39.88-14.361 58.624-25.836 3.685-2.256 6.97-4.238 7.3-4.405 7.686-3.888 12.353-12.285 11.522-20.734-.314-3.197-3.623-17.781-4.154-18.312-.092-.092-.798.615-1.568 1.571M68.65 263.738c.193.05.508.05.7 0 .193-.05.035-.092-.35-.092s-.542.042-.35.092" fill="#74833b"/><path d="M71.2 156.517C29.277 159.291 5.72 181.726 1.5 222.9c-3.928 38.322 11.192 69.374 42.221 86.707 1.418.792 2.606 1.464 2.638 1.493.033.028-.613 2.065-1.434 4.526-4.72 14.136-7.468 27.514-7.011 34.125.233 3.365.336 4.135.761 5.672 1.167 4.224 2.66 5.722 7.125 7.149 8.595 2.748 15.251 3.831 28.4 4.621 5.237.315 10.007-.128 16.245-1.509 11.64-2.578 12.416-3.481 12.425-14.484.006-6.055-.067-6.978-1.4-17.659-.506-4.047-.865-7.413-.799-7.479.066-.066 2.035.074 4.375.311 8.454.857 15.338 1.289 25.854 1.621 7.543.238 43.968.323 46.915.109l2.114-.153-.156 1.475c-2.352 22.161-1.545 39.504 2.04 43.832 3.741 4.515 35.845 6.218 51.525 2.734 11.124-2.472 15.074-4.263 15.957-7.237.715-2.408-.257-14.762-2.977-37.804-.568-4.812-.961-8.75-.873-8.75.602 0 10.832-1.603 15.393-2.411 17.004-3.016 34.155-7.673 46.962-12.753l3.5-1.388.141 2.226c.077 1.224.23 5.871.341 10.326.279 11.261.777 13.242 4.119 16.362 7.95 7.424 28.875 7.687 52.086.655 9.193-2.785 11.294-7.961 8.126-20.017-.39-1.485-1.303-5.13-2.029-8.1-6.027-24.667-8.731-34.858-9.222-34.761-.109.022-1.134.62-2.28 1.33-22.592 14.003-37.507 20.826-62.082 28.4-24.703 7.614-40.901 10.553-64.9 11.776-9.869.503-51.549.132-56.9-.506l-2-.239-.044-1.7c-.324-12.427-1.771-29.829-3.17-38.1-3.731-22.063-13.657-50.948-23.435-68.2-15.169-26.763-39.632-44.843-64.651-47.783-1.485-.175-3.24-.405-3.9-.511-1.286-.207-8.481-.409-10.3-.289m-29.603 41.195c10.927 2.575 14.268 17.991 5.837 26.928-9.053 9.597-23.173 3.923-23.777-9.553-.481-10.727 8.646-19.566 17.94-17.375m58.203.723c10.852 2.51 15.647 18.025 8.325 26.937-8.753 10.652-24.855 2.883-24.816-11.972.021-8.316 4.593-13.999 12.291-15.283.695-.116 3.118.068 4.2.318m289.9.836c-2.217.567-4.841 1.766-8.604 3.933-2.553 1.471-9.976 5.433-13.153 7.021a133.047 133.047 0 00-2.49 1.261c-.064.056 1.723 5.023 2.164 6.014.451 1.012 3.373 10.283 4.161 13.2 2.039 7.546 3.646 14.186 4.042 16.7.321 2.036.347 2.04 1.816.262 4.937-5.972 8.034-11.028 16.054-26.207 6.511-12.323 7.057-19.289 1.71-21.828-1.296-.616-4.017-.785-5.7-.356M93.536 241.122c3.052 2.275 1.336 6.063-4.833 10.67a646.735 646.735 0 00-5.803 4.401c-5.611 4.309-9.949 6.924-12.26 7.392-8.102 1.641-27.658-11.842-27.639-19.056.009-3.544 3.688-4.58 7.17-2.019 9.15 6.729 14.59 8.985 18.78 7.79.632-.18 2.994-1.3 5.249-2.487 8.241-4.342 9.161-4.811 10.815-5.521 4.015-1.721 7.197-2.158 8.521-1.17" fill="#bbd344"/><path d="M112.189 146.95l-.689.75.75-.689c.698-.642.842-.811.689-.811-.033 0-.371.337-.75.75m-2.498 2.3l-.791.85.85-.791c.79-.735.942-.909.791-.909-.033 0-.416.382-.85.85m-3.396 3.2l-1.395 1.45 1.45-1.395c1.347-1.295 1.541-1.505 1.395-1.505-.031 0-.683.653-1.45 1.45m-6.501 6.3L98.5 160.1l1.35-1.294c.743-.712 1.35-1.32 1.35-1.35 0-.147-.204.04-1.406 1.294m19.497-.1l-.791.85.85-.791c.467-.434.85-.817.85-.85 0-.151-.174.001-.909.791m-2.691 2.45c-.486.495-.838.9-.783.9.055 0 .497-.405.983-.9s.838-.9.783-.9c-.055 0-.497.405-.983.9m-3.806 3.65l-1.294 1.35 1.35-1.294c.743-.712 1.35-1.32 1.35-1.35 0-.147-.204.04-1.406 1.294m159.156 4.597c.578.041 1.523.041 2.1 0 .577-.04.105-.073-1.05-.073s-1.627.033-1.05.073m18.407.001c.581.04 1.481.04 2-.001.519-.041.043-.074-1.057-.074-1.1.001-1.524.034-.943.075m-24.603.197c.359.044.899.044 1.2-.002.3-.046.006-.082-.654-.081-.66.001-.906.038-.546.083m31 0c.359.044.899.044 1.2-.002.3-.046.006-.082-.654-.081-.66.001-.906.038-.546.083m-35.504.198c.303.046.798.046 1.1 0 .303-.046.055-.083-.55-.083-.605 0-.853.037-.55.083m39.803.001c.304.045.754.044 1-.003.246-.048-.003-.085-.553-.084-.55.002-.751.041-.447.087m-43.303.197c.248.048.653.048.9 0s.045-.087-.45-.087-.698.039-.45.087m46.6 0c.248.048.652.048.9 0s.045-.087-.45-.087-.697.039-.45.087m3.25.059l-.7.147.638.027c.351.014.694-.064.762-.174.068-.11.096-.188.062-.174-.034.015-.377.093-.762.174m-53.048.141c.249.048.609.046.8-.004.192-.05-.012-.089-.452-.087-.44.003-.596.044-.348.091m-2.8.2c.249.048.609.046.8-.004.192-.05-.012-.089-.452-.087-.44.003-.596.044-.348.091m-2.702.197c.193.05.508.05.7 0 .193-.05.035-.092-.35-.092s-.543.042-.35.092m-2.4.2c.193.05.507.05.7 0 .193-.05.035-.092-.35-.092s-.543.042-.35.092m-2.4.2c.193.05.507.05.7 0 .193-.05.035-.092-.35-.092s-.542.042-.35.092m28.908 11.81a24.62 24.62 0 002.4 0c.628-.04.062-.072-1.258-.072-1.32.001-1.834.033-1.142.072m16.099 0c.637.04 1.627.039 2.2-.001.574-.04.053-.073-1.157-.072-1.21 0-1.679.033-1.043.073m-22.511.196c.355.045.985.045 1.4.002.414-.043.124-.079-.646-.08-.77-.001-1.11.034-.754.078m29.808.001c.359.044.899.044 1.2-.002.3-.046.006-.082-.654-.081-.66.001-.906.038-.546.083m-34.104.198c.302.046.798.046 1.1 0 .303-.046.055-.083-.55-.083-.605 0-.853.037-.55.083m38.2 0c.303.046.797.046 1.1 0 .303-.046.055-.083-.55-.083-.605 0-.852.037-.55.083m-41.9.198c.248.048.653.048.9 0s.045-.087-.45-.087-.698.039-.45.087m45.4 0c.247.048.653.048.9 0 .248-.048.045-.087-.45-.087s-.697.039-.45.087m-48.8.2c.247.048.652.048.9 0s.045-.087-.45-.087-.697.039-.45.087m51.7-.003c.193.05.508.05.7 0 .193-.05.035-.092-.35-.092s-.542.042-.35.092m-54.298.203c.249.048.609.046.8-.004.192-.05-.012-.089-.452-.087-.44.003-.596.044-.348.091m-2.8.2c.249.048.609.046.8-.004.192-.05-.012-.089-.452-.087-.44.003-.596.044-.348.091m-2.302.197c.193.05.507.05.7 0 .193-.05.035-.092-.35-.092s-.543.042-.35.092m-19.171 6.362c0 1.54.032 2.144.07 1.341a34.38 34.38 0 00-.001-2.8c-.038-.737-.069-.081-.069 1.459m-13.401 1.7c0 1.485.032 2.093.07 1.35.039-.742.039-1.957 0-2.7-.038-.742-.07-.135-.07 1.35m-176.825 5.344c.304.045.754.044 1-.003.246-.048-.003-.085-.553-.084-.55.002-.751.041-.447.087M228.28 201.1c0 1.65.031 2.298.069 1.441.037-.858.037-2.208-.001-3-.038-.793-.068-.091-.068 1.559m-13.399 2.1c0 1.815.031 2.557.068 1.65.037-.908.037-2.392 0-3.3-.037-.907-.068-.165-.068 1.65m13.201 10.5c0 1.87.03 2.662.067 1.76.037-.902.037-2.432 0-3.4s-.067-.23-.067 1.64m-176.018-1.3c0 .715.036 1.007.081.65a6.418 6.418 0 000-1.3c-.045-.357-.081-.065-.081.65m162.618 3.3c0 1.87.03 2.662.067 1.76.037-.902.037-2.432 0-3.4s-.067-.23-.067 1.64m13.202 11.5c0 2.145.029 3.022.065 1.95a70.43 70.43 0 000-3.9c-.036-1.072-.065-.195-.065 1.95m-180.997-2.15l-.587.65.65-.587c.358-.323.65-.616.65-.65 0-.155-.165-.019-.713.587m41.305.8c.49.523.918.95.95.95.15 0-.009-.18-.892-1.008l-.95-.892.892.95M214.484 230c0 2.255.03 3.178.065 2.05a77.838 77.838 0 000-4.1c-.035-1.128-.065-.205-.065 2.05m142.905-.45l-.689.75.75-.689c.698-.642.842-.811.689-.811-.033 0-.371.338-.75.75m-4.498 4.5l-.791.85.85-.791c.79-.735.942-.909.791-.909-.033 0-.416.382-.85.85m14.898 3.9l-.689.75.75-.689c.413-.379.75-.717.75-.75 0-.153-.169-.009-.811.689M227.692 249.1c0 4.95.026 6.946.058 4.436s.032-6.56 0-9c-.032-2.44-.058-.386-.058 4.564m134.497-5.55l-.689.75.75-.689c.413-.379.75-.717.75-.75 0-.153-.169-.009-.811.689M185.3 247c1.427 1.43 2.639 2.6 2.694 2.6.055 0-1.067-1.17-2.494-2.6-1.427-1.43-2.639-2.6-2.694-2.6-.055 0 1.067 1.17 2.494 2.6m28.853 11.6c-.029 7.37.015 13.4.097 13.4s.15-6.03.15-13.4-.044-13.4-.097-13.4c-.054 0-.121 6.03-.15 13.4m-121.964-9.85l-.689.75.75-.689c.413-.379.75-.717.75-.75 0-.153-.169-.009-.811.689M47.4 252.1c.373.385.723.7.778.7.055 0-.205-.315-.578-.7-.373-.385-.723-.7-.778-.7-.055 0 .205.315.578.7m126.392 2.35c.828.883 1.008 1.042 1.008.892 0-.032-.427-.46-.95-.95l-.95-.892.892.95m4.008 4.05c.373.385.723.7.778.7.055 0-.205-.315-.578-.7-.373-.385-.723-.7-.778-.7-.055 0 .205.315.578.7m21.4 4.8c.597.605 1.131 1.1 1.186 1.1.055 0-.389-.495-.986-1.1-.597-.605-1.131-1.1-1.186-1.1-.055 0 .389.495.986 1.1m28.486 5.9c0 2.585.029 3.643.063 2.35.035-1.293.035-3.407 0-4.7-.034-1.292-.063-.235-.063 2.35m-37.886 3.7c.597.605 1.131 1.1 1.186 1.1.055 0-.389-.495-.986-1.1-.597-.605-1.131-1.1-1.186-1.1-.055 0 .389.495.986 1.1m51.05.438c.193.05.507.05.7 0 .193-.05.035-.092-.35-.092s-.543.042-.35.092m-2.698.203c.249.048.609.046.8-.004.192-.05-.012-.089-.452-.087-.44.003-.596.044-.348.091m-4.502.205a8.737 8.737 0 001.5 0c.413-.043.075-.079-.75-.079s-1.162.036-.75.079m10.2 12.792c.193.05.507.05.7 0 .193-.05.035-.092-.35-.092s-.543.042-.35.092m-2.298.203c.249.048.609.046.8-.004.192-.05-.012-.089-.452-.087-.44.003-.596.044-.348.091m-2.6.2c.249.048.609.046.8-.004.192-.05-.012-.089-.452-.087-.44.003-.596.044-.348.091m-15.102.202c.303.046.798.046 1.1 0 .303-.046.055-.083-.55-.083-.605 0-.852.037-.55.083m11.6 0c.303.046.798.046 1.1 0 .303-.046.055-.083-.55-.083-.605 0-.852.037-.55.083m-6 .203a8.737 8.737 0 001.5 0c.413-.043.075-.079-.75-.079s-1.162.036-.75.079" fill="#5e6636"/><path d="M82.05 156.938c.193.05.508.05.7 0 .192-.05.035-.092-.35-.092s-.542.042-.35.092M132.2 181.5c.93.935 1.736 1.7 1.791 1.7.055 0-.661-.765-1.591-1.7-.93-.935-1.736-1.7-1.791-1.7-.055 0 .661.765 1.591 1.7m-35.85 16.641c.248.048.652.048.9 0s.045-.087-.45-.087-.697.039-.45.087m10.15 4.259c.43.44.826.8.881.8.055 0-.251-.36-.681-.8-.43-.44-.826-.8-.881-.8-.055 0 .251.36.681.8m5.15 12.5c.003.44.044.596.091.348.048-.249.046-.609-.004-.8-.05-.192-.089.012-.087.452M28 225.7c.373.385.723.7.778.7.055 0-.205-.315-.578-.7-.373-.385-.723-.7-.778-.7-.055 0 .205.315.578.7M94.846 244c0 .385.042.543.092.35.05-.193.05-.507 0-.7-.05-.193-.092-.035-.092.35m80.6 46.4c0 .385.042.543.092.35.05-.192.05-.507 0-.7-.05-.192-.092-.035-.092.35m.2 2.2c0 .385.042.543.092.35.05-.193.05-.507 0-.7-.05-.192-.092-.035-.092.35m.204 2.7c.003.44.044.596.091.348.048-.249.046-.609-.004-.8-.05-.192-.089.012-.087.452m.204 2.7c0 .495.039.697.087.45a2.83 2.83 0 000-.9c-.048-.247-.087-.045-.087.45m.203 3.3c.002.55.041.751.087.447a3.627 3.627 0 00-.003-1c-.048-.246-.085.003-.084.553m.207 4.3c0 .715.036 1.008.081.65a6.418 6.418 0 000-1.3c-.045-.357-.081-.065-.081.65m64.386 7.938c.193.05.507.05.7 0 .193-.05.035-.092-.35-.092s-.543.042-.35.092m-56.4.208a8.737 8.737 0 001.5 0c.413-.043.075-.079-.75-.079s-1.162.036-.75.079m11.507.202c.581.04 1.481.04 2-.001.519-.041.043-.074-1.057-.074-1.1.001-1.524.034-.943.075m36.395-.007c.249.048.609.046.8-.004.192-.05-.012-.089-.452-.087-.44.003-.596.044-.348.091m-23.393.208c.913.037 2.353.037 3.2-.001.848-.037.101-.067-1.659-.067s-2.453.031-1.541.068m12.991 0c.798.037 2.103.037 2.9 0 .798-.038.145-.07-1.45-.07s-2.247.032-1.45.07" fill="#97a43f"/></g></svg>